# xmcd CD database file
#
# Track frame offsets:
#	150
#	19063
#	34213
#	46574
#	65711
#	81284
#	93732
#	103653
#	117296
#	132998
#
# Disc length: 2181 seconds
#
# Revision: 0
# Processed by: cddbd v1.5.2PL0 Copyright (c) Steve Scherf et al.
# Submitted via: CDex 1.77
#
DISCID=8408830a
DTITLE=Profil - Fluss des Lebens
DYEAR=1900
DGENRE=Country
TTITLE0=01 Auferstanden
TTITLE1=02 Fluss des Lebens
TTITLE2=03 Where you there
TTITLE3=04 Autobahn
TTITLE4=05 Abendlied
TTITLE5=06 When I was hungry
TTITLE6=07 Happy Mundi
TTITLE7=08 Hey Mann
TTITLE8=09 Kinder
TTITLE9=10 Vater des Lichts
EXTD=
EXTT0=
EXTT1=
EXTT2=
EXTT3=
EXTT4=
EXTT5=
EXTT6=
EXTT7=
EXTT8=
EXTT9=
PLAYORDER=
